# xmcd
#
# Track frame offsets: 
#        150
#        17827
#        28851
#        41008
#        56400
#        67802
#        79839
#        95659
#        111263
#        123683
#        134607
#        144694
#        153226
#        165946
#        195815
#        209500
#        223392
#        235376
#        252563
#        267413
#        281192
#        294112
#
# Disc length: 4074 seconds
#
# Revision: 0
# Processed by: cddbd v1.5.1PL2 Copyright (c) Steve Scherf et al.
# Submitted via: ExactAudioCopy v0.95b3
#
DISCID=530fe816
DTITLE=Ike and Tina Turner - The Soul Anthology [CD2]
DYEAR=2006
DGENRE=Blues
TTITLE0=I've Been Loving You Too Long
TTITLE1=Mean Old World
TTITLE2=3 O'clock In The Morning Blues
TTITLE3=Five Long Years
TTITLE4=Dust My Broom (aka I Believe I'll Dust My Broom)
TTITLE5=Grumbling
TTITLE6=I Am A Motherless Child
TTITLE7=Crazy 'Bout You, Baby
TTITLE8=Reconsider Baby
TTITLE9=Honest I Do
TTITLE10=Please Love Me
TTITLE11=My Babe
TTITLE12=Rock Me, Baby
TTITLE13=The Hunter
TTITLE14=You Don't Love Me
TTITLE15=You Got Me Running
TTITLE16=Bold Soul Sister
TTITLE17=I Smell Trouble
TTITLE18=The Things I Used To Do
TTITLE19=Early In The Morning
TTITLE20=You're Still My Baby
TTITLE21=I Know
EXTD=
EXTT0=
EXTT1=
EXTT2=
EXTT3=
EXTT4=
EXTT5=
EXTT6=
EXTT7=
EXTT8=
EXTT9=
EXTT10=
EXTT11=
EXTT12=
EXTT13=
EXTT14=
EXTT15=
EXTT16=
EXTT17=
EXTT18=
EXTT19=
EXTT20=
EXTT21=
PLAYORDER=
